<svg xmlns="http://www.w3.org/2000/svg" width="4000" height="4000" id="lord-ganesha"><switch><g><path d="m2226.217 2902.146 2.952-4.962c1.96-3.265 4.86-8.116 8.732-14.388 7.743-12.544 19.133-30.931 34.146-54.006 14.987-23.091 33.538-50.91 55.475-82.386 10.969-15.737 22.825-32.358 35.486-49.771a2866.838 2866.838 0 0 1 40.619-54.293 2481.718 2481.718 0 0 1 45.844-57.8c16.188-19.714 33.267-39.833 51.316-60.121 36.203-40.456 76.093-81.882 121.921-120.278 11.451-9.599 23.331-18.935 35.693-27.886a504.272 504.272 0 0 1 18.915-13.116c6.443-4.247 12.995-8.404 19.738-12.347 13.475-7.89 27.543-15.197 42.474-21.184 14.918-5.964 30.702-10.737 47.354-12.945 2.087-.246 4.16-.552 6.272-.698 2.103-.188 4.209-.365 6.337-.432 1.062-.044 2.121-.104 3.186-.131l3.203-.015 1.602-.005c.082-.006.795.004.981.015l.727.024 2.909.099c1.851.033 4.089.206 6.222.349 2.177.12 4.224.36 6.306.572 2.08.186 4.152.505 6.228.789 2.079.259 4.143.665 6.213 1.02a159.42 159.42 0 0 1 24.471 6.526 150.865 150.865 0 0 1 23.232 10.578 149.645 149.645 0 0 1 21.178 14.424c6.618 5.421 12.753 11.419 18.356 17.85a163.406 163.406 0 0 1 15.174 20.492c4.496 7.195 8.402 14.717 11.782 22.429 6.761 15.433 11.37 31.625 14.182 47.972 2.813 16.356 3.841 32.877 3.47 49.243-.865 32.759-7.322 64.803-17.349 95.094-9.997 30.345-23.722 58.944-39.624 85.603-7.968 13.328-16.461 26.205-25.457 38.558a577.942 577.942 0 0 1-28.204 35.61c-19.56 22.772-40.436 43.642-62.016 62.672a735.695 735.695 0 0 1-66.164 51.997c-44.761 31.37-90.026 56.344-132.898 76.669-42.926 20.28-83.503 35.958-119.919 48.283-36.433 12.311-68.682 21.39-95.368 28.231-6.688 1.655-12.997 3.287-18.965 4.702-5.975 1.391-11.558 2.752-16.78 3.904-5.219 1.162-10.048 2.236-14.472 3.222l-12.067 2.552c-3.603.777-6.795 1.42-9.555 1.95l-6.947 1.364-5.664 1.111 21.838-5.801c14.236-3.776 35.021-9.688 61.268-17.761 26.212-8.181 57.852-18.699 93.472-32.421 35.603-13.738 75.173-30.762 116.835-52.155 41.619-21.419 85.367-47.258 128.364-78.961 42.978-31.63 85.191-69.302 122.246-113.745a559.29 559.29 0 0 0 26.545-34.646 487.508 487.508 0 0 0 23.897-37.124c14.871-25.57 27.459-52.827 36.686-81.319 2.277-7.128 4.389-14.319 6.227-21.582a344.227 344.227 0 0 0 4.765-21.962 291.528 291.528 0 0 0 4.568-44.61c.302-14.924-.677-29.85-3.221-44.435-2.541-14.578-6.657-28.815-12.544-42.164a156.756 156.756 0 0 0-10.127-19.261 138.327 138.327 0 0 0-12.792-17.361c-4.695-5.413-9.807-10.434-15.307-14.963a124.742 124.742 0 0 0-17.592-12.037 126.003 126.003 0 0 0-19.384-8.881c-6.712-2.399-13.637-4.235-20.677-5.576-1.766-.313-3.519-.68-5.302-.908-1.778-.254-3.549-.548-5.342-.715-1.785-.193-3.598-.422-5.301-.521-1.742-.126-3.373-.29-5.404-.345l-2.908-.118-.727-.03c-.298-.015-.071 0-.475-.005l-1.306-.003-2.612-.011-2.623.092c-1.747.036-3.501.176-5.255.32-1.753.101-3.511.357-5.266.546-14.06 1.748-28.059 5.803-41.619 11.118-13.565 5.357-26.756 11.926-39.521 19.213-25.538 14.642-49.354 32.072-71.96 50.271-22.607 18.24-43.871 37.53-64.17 56.987-20.298 19.472-39.541 39.229-57.886 58.853-18.382 19.593-35.813 39.106-52.413 58.225-16.631 19.094-32.383 37.836-47.313 55.997-14.961 18.139-29.056 35.731-42.337 52.569-13.306 16.819-25.733 32.934-37.344 48.135-23.215 30.408-43.024 57.265-59.191 79.494-16.139 22.251-28.694 39.838-37.134 51.915l-9.629 13.795-3.276 4.751zm-545.205 10.219-3.129-5.581-9.251-16.19c-8.146-14.153-20.3-34.79-36.154-60.801-7.939-12.997-16.794-27.344-26.627-42.837a2778.234 2778.234 0 0 0-32.238-49.863c-23.375-35.346-50.487-74.724-81.702-116.379-31.251-41.598-66.548-85.616-107.222-128.826-20.349-21.571-42.138-42.839-65.608-62.986-23.491-20.079-48.848-38.961-76.396-54.462-13.781-7.695-28.123-14.523-43.003-19.729-14.865-5.205-30.248-8.878-45.779-10.198-15.52-1.318-31.175-.223-46.195 3.763l-2.806.785-1.404.39c-.373.11-.273.065-.569.162l-.76.24-1.498.477-1.218.424c-.791.259-1.711.633-2.562.94-3.437 1.358-6.784 2.904-9.973 4.717-6.403 3.585-12.203 8.149-17.338 13.467-10.272 10.668-17.583 24.54-22.191 39.629-4.636 15.114-6.742 31.38-7.127 47.832-.377 16.475.939 33.182 3.388 49.805 2.464 16.631 6.118 33.189 10.642 49.549 9.071 32.734 21.6 64.646 36.181 95.453 14.622 30.811 31.5 60.466 49.85 88.87 18.336 28.423 38.224 55.566 59.189 81.335a1022.793 1022.793 0 0 0 65.636 73.26c22.726 22.994 46.039 44.683 69.756 64.889a1178.35 1178.35 0 0 0 71.779 56.495 1178.198 1178.198 0 0 0 36.053 25.134 1192.053 1192.053 0 0 0 35.818 23.166c23.768 14.776 47.26 28.223 70.148 40.527 22.911 12.266 45.25 23.33 66.748 33.334 21.504 9.993 42.185 18.887 61.786 26.856 19.61 7.95 38.159 14.929 55.411 21.119a1529.965 1529.965 0 0 0 47.735 16.14c29.008 9.225 52.059 15.723 67.83 19.941 7.888 2.104 13.939 3.712 18.027 4.756l6.197 1.592-6.276-1.246c-4.138-.832-10.282-2.055-18.267-3.789-15.963-3.486-39.373-8.721-68.849-16.723a1294.473 1294.473 0 0 1-48.574-14.177 1279.653 1279.653 0 0 1-56.51-19.096 1245.706 1245.706 0 0 1-63.169-24.903 1266.952 1266.952 0 0 1-33.653-14.886 1316.912 1316.912 0 0 1-34.762-16.69c-23.512-11.727-47.642-24.705-72.086-39.081a1207.154 1207.154 0 0 1-36.899-22.556 1187.252 1187.252 0 0 1-37.138-24.711c-24.8-17.181-49.634-35.799-74.113-55.966-24.481-20.159-48.708-41.755-72.181-64.939-23.476-23.178-46.337-47.807-68.071-73.961-21.721-26.16-42.387-53.78-61.524-82.805-19.105-29.042-36.635-59.519-51.98-91.315-15.342-31.788-28.425-64.963-38.038-99.373-4.793-17.205-8.705-34.72-11.378-52.516-2.681-17.788-4.106-35.873-3.644-54.101.474-18.204 2.804-36.622 8.328-54.548 2.771-8.947 6.37-17.752 11.006-26.132 4.636-8.368 10.323-16.312 17.103-23.329 6.767-7.018 14.612-13.088 23.139-17.797 4.25-2.378 8.675-4.395 13.17-6.133 1.152-.415 2.209-.835 3.44-1.24l1.803-.605 1.546-.481.762-.235c.21-.069.826-.24.964-.276l1.67-.455 3.34-.906c17.891-4.612 36.479-5.747 54.416-4.088 17.974 1.633 35.302 5.993 51.645 11.96 16.374 5.95 31.784 13.535 46.409 21.925 14.639 8.39 28.437 17.708 41.595 27.502a585.247 585.247 0 0 1 19.251 15.057 674.913 674.913 0 0 1 18.364 15.634c23.939 21.158 45.725 43.437 66.001 65.837 20.289 22.399 38.965 45.043 56.425 67.363 17.486 22.304 33.618 44.4 48.725 65.851 30.177 42.933 55.954 83.498 77.998 119.893 11.008 18.207 21.041 35.402 30.188 51.37 9.103 15.995 17.321 30.761 24.603 44.174a2136.825 2136.825 0 0 1 32.796 62.788 1105.094 1105.094 0 0 1 8.24 16.739l2.761 5.771zm839.562-761.185s1.246 1.166 3.612 3.291c2.362 2.128 5.86 5.2 10.343 9.023a504.718 504.718 0 0 0 16.414 13.355 434.336 434.336 0 0 0 21.936 16.053c4.118 2.755 8.361 5.658 12.897 8.414 2.246 1.412 4.564 2.777 6.892 4.2 2.368 1.352 4.734 2.783 7.203 4.097a276.942 276.942 0 0 0 15.221 7.836c5.279 2.439 10.68 4.829 16.258 6.971 2.809 1.004 5.619 2.078 8.49 2.985 1.432.462 2.854.979 4.305 1.403l4.361 1.271c1.454.442 2.939.753 4.411 1.14 1.474.377 2.951.748 4.448 1.03l4.475.947 4.513.772c12.059 1.924 24.409 2.425 36.55 1.05 3.049-.229 6.049-.834 9.069-1.262l4.481-.937 2.242-.457 2.212-.588 4.423-1.164 4.357-1.391 2.178-.687 2.14-.806 4.274-1.604c1.416-.555 2.797-1.204 4.194-1.798l2.09-.906 1.044-.451 1.019-.511 4.087-2c.678-.337 1.365-.651 2.034-1.005l1.983-1.105 3.957-2.197c1.33-.705 2.569-1.575 3.854-2.349 1.272-.798 2.543-1.59 3.825-2.359 1.258-.81 2.479-1.673 3.715-2.502 9.843-6.706 18.895-14.126 27.144-21.661l6.043-5.67c1.963-1.895 3.799-3.864 5.701-5.717l2.796-2.792 2.649-2.846c1.755-1.878 3.462-3.739 5.178-5.534 3.266-3.731 6.486-7.256 9.418-10.734 2.912-3.493 5.763-6.76 8.307-9.945l7.191-8.915c2.165-2.805 4.146-5.396 5.985-7.712a253.251 253.251 0 0 0 4.816-6.262 384.92 384.92 0 0 1 3.555-4.656l3.022-3.857-1.756 4.568a390.107 390.107 0 0 1-2.184 5.464l-1.41 3.461-1.73 3.857c-1.216 2.726-2.619 5.718-4.137 8.991-1.572 3.242-3.404 6.678-5.303 10.401-.926 1.876-2.003 3.739-3.105 5.665l-3.396 5.957c-1.126 2.068-2.464 4.071-3.77 6.17-1.32 2.094-2.671 4.235-4.052 6.422-5.823 8.555-12.383 17.745-20.312 26.794-7.929 9.028-17 18.101-27.497 26.399-1.313 1.035-2.608 2.104-3.955 3.124a304.772 304.772 0 0 1-4.156 2.957c-1.411.963-2.766 2.013-4.242 2.912l-4.396 2.774-2.214 1.393c-.749.45-1.523.864-2.286 1.299l-4.617 2.582-1.164.639-1.199.58-2.406 1.162c-1.612.764-3.205 1.577-4.849 2.298l-4.995 2.066-2.512 1.019-2.57.898c-1.717.595-3.438 1.189-5.159 1.786l-5.277 1.493-2.646.741-2.686.604c-1.793.401-3.588.8-5.389 1.168-3.637.558-7.256 1.283-10.932 1.584-14.656 1.637-29.507.737-43.543-2.024-14.056-2.789-27.29-7.452-39.373-13.097-6.014-2.883-11.816-5.88-17.271-9.158-1.373-.803-2.701-1.658-4.04-2.477a119.205 119.205 0 0 1-3.946-2.506l-3.851-2.531-3.71-2.62c-9.811-6.947-18.428-14.266-26.017-21.323-7.543-7.118-14.062-13.984-19.521-20.327-5.465-6.337-9.948-12.067-13.452-16.921-3.521-4.838-6.094-8.77-7.782-11.488-1.687-2.715-2.504-4.214-2.504-4.214z"/><path d="M2410.969 1854.494c12.801-5.727 25.391-11.898 37.918-18.179a1210.633 1210.633 0 0 0 37.193-19.571c24.55-13.489 48.676-27.725 72.179-42.891 23.501-15.163 46.417-31.21 68.347-48.461a679.572 679.572 0 0 0 32.109-26.762c10.389-9.263 20.483-18.838 30.097-28.847 9.622-9.996 18.827-20.369 27.364-31.229 8.559-10.839 16.459-22.16 23.432-33.972 6.971-11.806 13.033-24.105 17.736-36.848 4.71-12.733 8.068-25.904 9.683-39.246 1.626-13.336 1.491-26.827-.468-40.056-1.984-13.228-5.762-26.164-10.958-38.546-2.605-6.191-5.622-12.221-8.892-18.119-3.255-5.907-6.876-11.629-10.723-17.206-7.656-11.185-16.419-21.661-25.729-31.645l1.075.978c-23.165-17.194-47.399-32.941-72.698-46.727-25.3-13.77-51.552-25.75-78.556-35.579-27.005-9.806-54.75-17.496-82.913-22.619-28.155-5.13-56.742-7.642-85.196-7.056-28.442.588-56.765 4.34-84.024 11.772-27.247 7.422-53.41 18.539-77.278 33.351-23.882 14.787-45.408 33.25-63.824 54.486-18.428 21.249-33.682 45.227-46.07 70.657l-2.283 4.792c-.755 1.601-1.549 3.182-2.23 4.818l-4.247 9.744-3.935 9.888-.979 2.474-.902 2.506-1.806 5.013-1.717 4.773-1.666 5.224-3.33 10.449c-1.097 3.479-2.248 6.975-3.301 10.44l-2.777 10.269c-1.809 6.866-3.859 13.615-5.293 20.665l-2.354 10.477-1.178 5.237c-.19.875-.408 1.743-.576 2.622l-.47 2.641-3.772 21.126-2.855 21.258c-3.287 28.402-4.356 57.04-3.093 85.58 1.255 28.541 4.841 56.976 10.646 84.969a574.136 574.136 0 0 0 23.69 82.428c9.928 26.872 21.802 53.05 35.316 78.381 27.098 50.635 60.428 98.034 98.441 141.352l7.19 8.07 3.596 4.035 3.687 3.953 7.371 7.907c2.441 2.651 5.011 5.182 7.509 7.778l15.323 15.682a604.356 604.356 0 0 1 7.704 8.1c2.55 2.694 5.058 5.43 7.561 8.169a753.931 753.931 0 0 1 29.073 33.747c9.356 11.541 18.415 23.338 27.025 35.48 17.243 24.257 32.972 49.718 46.219 76.61 6.567 13.469 12.629 27.231 17.732 41.42 2.624 7.062 4.895 14.273 7.069 21.513 2.077 7.276 3.987 14.611 5.558 22.047 1.532 7.442 2.918 14.932 3.814 22.52.938 7.574 1.608 15.206 1.785 22.882l.092 2.876c.018.959.001 1.922.003 2.882-.014 1.922.009 3.843-.038 5.765-.146 3.848-.262 7.693-.617 11.537-.14 1.923-.294 3.844-.544 5.761-.232 1.917-.427 3.837-.695 5.75l-.898 5.729c-.275 1.912-.724 3.801-1.079 5.702-1.537 7.583-3.494 15.104-6.035 22.433-2.496 7.34-5.408 14.551-8.881 21.48l-1.273 2.612c-.443.861-.916 1.706-1.373 2.56-.932 1.697-1.826 3.416-2.791 5.094-1.992 3.315-3.933 6.665-6.12 9.85-2.074 3.264-4.403 6.34-6.657 9.469-1.159 1.539-2.379 3.028-3.566 4.543l-1.795 2.262-1.875 2.189-3.767 4.361-3.933 4.198-1.969 2.095-2.045 2.015-4.091 4.022c-5.613 5.178-11.331 10.238-17.368 14.85-1.508 1.153-2.978 2.363-4.52 3.466l-4.609 3.327-2.331 1.678-2.258 1.557-4.514 3.113-9.139 6.225-9.149 6.142c-24.438 16.298-49.1 32.09-73.714 47.888-49.262 31.522-98.419 63.01-145.874 96.797-23.713 16.899-46.978 34.399-69.349 52.925-22.36 18.519-43.87 38.077-63.375 59.423-9.753 10.664-18.931 21.827-27.27 33.557-4.21 5.84-8.069 11.901-11.771 18.049-1.74 3.13-3.622 6.195-5.207 9.403-.817 1.593-1.662 3.173-2.457 4.775l-2.266 4.861c-.786 1.608-1.46 3.261-2.135 4.914-.666 1.655-1.399 3.289-2.012 4.963-1.197 3.356-2.479 6.693-3.44 10.122-1.12 3.39-1.88 6.864-2.752 10.317-.373 1.737-.669 3.49-1.009 5.235-.157.875-.348 1.746-.478 2.624l-.339 2.643-.34 2.644c-.117.881-.241 1.763-.277 2.649l-.357 5.317c-.112 1.773-.042 3.549-.074 5.326l-.013 2.665.16 2.659c.129 1.771.162 3.554.368 5.318l.667 5.294c.088.887.252 1.761.431 2.632l.507 2.622.506 2.624c.144.795.41 1.751.609 2.619l2.565 10.664c.873 3.543 1.874 7.008 2.805 10.519.902 3.512 1.987 6.98 3.045 10.457l1.585 5.216c.559 1.729 1.164 3.439 1.743 5.161 4.657 13.753 10.135 27.255 17.084 39.983 3.543 6.31 7.334 12.519 11.858 18.166 4.471 5.675 9.5 10.947 15.296 15.262 2.86 2.213 6.004 4.012 9.227 5.638 3.283 1.499 6.705 2.708 10.25 3.461 7.07 1.411 14.675 1.056 21.397-1.882-6.609 3.194-14.282 3.867-21.548 2.701-3.642-.628-7.191-1.729-10.607-3.16-3.353-1.551-6.645-3.293-9.648-5.458-6.089-4.222-11.418-9.445-16.179-15.087-4.817-5.619-8.888-11.807-12.711-18.109-7.512-12.705-13.524-26.223-18.642-40.014-.64-1.725-1.305-3.442-1.923-5.175l-1.763-5.228c-1.177-3.484-2.379-6.961-3.406-10.504-1.05-3.526-2.183-7.058-3.166-10.586l-2.885-10.582c-.235-.907-.489-1.707-.708-2.703l-.61-2.744-.61-2.748c-.212-.914-.41-1.831-.531-2.762l-.857-5.568c-.268-1.858-.36-3.737-.547-5.607l-.243-2.809-.067-2.817c-.021-1.878-.141-3.761-.076-5.638l.222-5.636c.016-.941.118-1.875.214-2.81l.282-2.805.283-2.805c.112-.934.286-1.855.426-2.784.306-1.852.572-3.714.915-5.56.812-3.661 1.522-7.356 2.596-10.948.918-3.643 2.156-7.175 3.323-10.735.601-1.774 1.32-3.5 1.976-5.252.664-1.75 1.33-3.499 2.105-5.197l2.24-5.138c.787-1.692 1.623-3.358 2.433-5.04 1.575-3.39 3.438-6.613 5.171-9.916 3.677-6.474 7.521-12.855 11.71-18.987 8.31-12.315 17.429-24.042 27.17-35.173 19.468-22.296 40.898-42.67 63.141-61.957 22.284-19.258 45.453-37.394 69.021-54.92 23.568-17.529 47.596-34.381 71.803-50.91 24.21-16.525 48.589-32.754 72.964-48.913 24.374-16.158 48.737-32.274 72.721-48.789l8.971-6.217 8.899-6.256 4.467-3.18 2.234-1.591 2.095-1.56 4.237-3.153c1.418-1.043 2.752-2.185 4.134-3.269 5.539-4.331 10.717-9.047 15.798-13.837l3.682-3.713 1.842-1.855 1.76-1.925 3.521-3.847 3.351-3.982 1.67-1.993 1.586-2.056c1.05-1.376 2.135-2.727 3.157-4.119 1.979-2.833 4.043-5.608 5.85-8.546 1.926-2.865 3.604-5.872 5.349-8.84.84-1.502 1.61-3.04 2.421-4.556.396-.763.811-1.518 1.194-2.285l1.098-2.333c3.009-6.18 5.501-12.595 7.633-19.119 2.176-6.514 3.823-13.201 5.108-19.959.292-1.696.679-3.373.898-5.084l.739-5.114c.22-1.709.367-3.431.556-5.145.207-1.712.321-3.437.424-5.162.285-3.442.352-6.907.455-10.367.025-1.731-.015-3.468-.018-5.201-.01-.867 0-1.733-.025-2.602l-.109-2.604c-.223-6.943-.902-13.893-1.826-20.816-.881-6.93-2.23-13.821-3.708-20.684-1.517-6.86-3.36-13.664-5.358-20.431-2.101-6.741-4.281-13.468-6.816-20.091-4.922-13.291-10.789-26.279-17.157-39.031-6.419-12.734-13.457-25.193-20.947-37.396-7.512-12.192-15.538-24.095-23.93-35.747-8.387-11.658-17.226-23.009-26.362-34.122a733.084 733.084 0 0 0-28.406-32.521 610.736 610.736 0 0 0-7.392-7.878c-2.477-2.628-4.972-5.188-7.463-7.746l-15.399-15.631c-2.582-2.66-5.233-5.254-7.757-7.971l-7.618-8.104-3.81-4.054-3.719-4.136-7.435-8.277c-19.693-22.191-38.117-45.53-55.246-69.809-17.125-24.281-32.843-49.596-46.889-75.851-28.097-52.467-49.539-108.84-61.602-167.437-6.031-29.279-9.747-59.058-11.021-88.945-1.282-29.887-.12-59.873 3.36-89.565l3.046-22.21 4.027-22.043.505-2.755c.179-.916.407-1.821.609-2.732l1.247-5.458 2.499-10.914c1.519-7.281 3.729-14.536 5.685-21.797l3.012-10.888c1.088-3.525 2.239-6.97 3.354-10.459l3.373-10.435 1.687-5.218c.048-.162.31-.897.313-.908l.241-.662.482-1.325.966-2.649 1.934-5.297.968-2.648 1.048-2.621 4.219-10.474 4.559-10.345c.734-1.734 1.585-3.421 2.396-5.123l2.455-5.099c13.29-27.088 29.89-52.758 49.958-75.592 20.058-22.819 43.563-42.71 69.533-58.541 25.942-15.893 54.308-27.601 83.554-35.26 29.265-7.681 59.402-11.357 89.426-11.694 30.042-.367 59.982 2.688 89.294 8.388 29.321 5.701 58.038 14.047 85.88 24.541 27.834 10.54 54.738 23.348 80.602 37.91 12.941 7.27 25.556 15.1 37.91 23.301a625.942 625.942 0 0 1 36.134 25.913l.642.496.435.482c9.626 10.685 18.717 21.938 26.701 34.041 4.009 6.033 7.787 12.242 11.19 18.676 3.418 6.422 6.568 13.007 9.285 19.79 5.427 13.561 9.328 27.817 11.198 42.378 1.862 14.557 1.707 29.357-.351 43.815-2.046 14.468-5.961 28.575-11.246 42.033-5.268 13.478-11.968 26.28-19.523 38.447-7.561 12.173-16.015 23.712-25.08 34.68-9.052 10.983-18.704 21.414-28.781 31.372-10.067 9.97-20.576 19.449-31.35 28.582a685.49 685.49 0 0 1-33.177 26.274c-11.31 8.415-22.859 16.48-34.563 24.298a959.06 959.06 0 0 1-35.631 22.607 1116.491 1116.491 0 0 1-36.505 21.09c-12.289 6.809-24.722 13.346-37.249 19.686a1215.475 1215.475 0 0 1-37.896 18.351c-12.741 5.894-25.582 11.557-38.588 16.805z"/><path d="M1489.881 1730.406c-16.889-7.24-33.449-15.247-49.813-23.628a1011.15 1011.15 0 0 1-48.407-26.494c-31.753-18.604-62.593-38.938-91.566-61.863-14.509-11.426-28.489-23.57-41.798-36.47l-4.926-4.907a187.03 187.03 0 0 1-4.867-4.97l-4.805-5.038-4.682-5.16-2.336-2.586-2.272-2.646c-1.509-1.77-3.042-3.519-4.532-5.306-2.916-3.63-5.911-7.196-8.684-10.95-1.392-1.872-2.863-3.682-4.19-5.605l-4.053-5.716c-1.352-1.905-2.589-3.894-3.89-5.839l-1.928-2.934c-.632-.985-1.222-1.999-1.833-2.999-4.973-7.945-9.32-16.308-13.268-24.866l-2.847-6.481-2.549-6.62c-.899-2.188-1.553-4.473-2.313-6.717l-1.106-3.38c-.385-1.121-.641-2.286-.967-3.427-2.669-9.118-4.34-18.555-5.283-28.062l-.313-3.573c-.106-1.191-.226-2.382-.228-3.58l-.18-7.183c-.009-2.395.153-4.789.226-7.186.062-1.197.063-2.399.175-3.592l.374-3.578.378-3.579.19-1.79.298-1.773 1.22-7.093c.456-2.354 1.085-4.668 1.623-7.005l.845-3.497 1.057-3.432c.723-2.281 1.377-4.591 2.163-6.851l2.545-6.707c.796-2.262 1.825-4.414 2.803-6.591l1.476-3.263.739-1.631c.144-.308.202-.464.415-.896l.389-.769c2.102-4.108 4.052-8.169 6.377-12.347 1.131-2.068 2.231-4.172 3.391-6.21l3.516-6.08c18.966-32.29 43.116-61.755 71.784-86.232 14.327-12.229 29.73-23.251 46.059-32.744 2.053-1.165 4.065-2.404 6.153-3.508l6.237-3.361c4.217-2.129 8.419-4.294 12.727-6.242 8.577-3.968 17.316-7.618 26.25-10.743 35.644-12.738 73.859-18.561 111.866-16.762 37.974 1.928 75.768 11.576 109.796 29.107 8.499 4.374 16.81 9.146 24.777 14.451a266.165 266.165 0 0 1 23.024 17.137c7.388 6.093 14.333 12.704 20.986 19.581l2.482 2.592.62.648c.071.066.604.638.755.815l1.144 1.287 4.575 5.15 4.575 5.15c.765.83 1.519 1.78 2.275 2.702l2.268 2.775 4.533 5.555c1.514 1.852 3.043 3.698 4.418 5.602l8.48 11.34 8.006 11.683c1.367 1.927 2.595 3.943 3.849 5.943l3.758 6.003c9.873 16.097 18.646 32.861 26.285 50.105 7.664 17.239 14.044 34.999 19.477 52.987 5.428 17.995 9.862 36.242 13.483 54.604 3.647 18.361 6.38 36.847 8.532 55.352 2.162 18.506 3.686 37.042 4.797 55.563 2.16 37.043 2.689 74.011 2.842 110.828l.136 54.964.2 13.775.563 13.33c.066 2.213.239 4.456.401 6.696l.478 6.717c.261 4.485.758 8.942 1.206 13.405 1.829 17.846 4.557 35.574 8.284 53.071a440.77 440.77 0 0 0 14.447 51.566 416.423 416.423 0 0 0 20.721 49.255c2.056 3.95 4.037 7.941 6.148 11.861l6.549 11.645 6.967 11.399c1.129 1.92 2.414 3.742 3.637 5.604l3.702 5.562a424.253 424.253 0 0 0 70.839 79.939c26.792 23.74 56.413 44.35 87.603 62.332l2.911 1.71 2.964 1.622 5.927 3.246 5.927 3.248 3.057 1.656 3.036 1.626c4.021 2.129 8.164 4.44 12.263 6.688 4.058 2.296 8.13 4.545 12.148 6.898 16.137 9.299 31.96 19.15 47.479 29.484 7.731 5.211 15.418 10.492 22.977 15.969 7.546 5.493 15.043 11.062 22.377 16.858 7.35 5.774 14.608 11.678 21.703 17.794 3.578 3.019 7.059 6.162 10.573 9.262 3.458 3.171 6.945 6.306 10.333 9.562 3.433 3.201 6.758 6.53 10.114 9.82 3.293 3.364 6.613 6.696 9.819 10.156 6.455 6.868 12.741 13.925 18.719 21.28 5.99 7.342 11.75 14.906 17.162 22.762 5.38 7.88 10.442 16.026 15.02 24.498 4.58 8.467 8.701 17.246 12.17 26.352 3.453 9.109 6.236 18.552 8.142 28.24 1.904 9.685 2.91 19.623 2.816 29.602a133.626 133.626 0 0 1-3.595 29.699c-2.305 9.725-5.716 19.152-10.01 28.072-4.294 8.926-9.45 17.352-15.199 25.251-5.82 7.844-12.224 15.145-18.977 22.018l-5.154 5.049c-1.733 1.663-3.545 3.228-5.314 4.844l-2.67 2.404-2.746 2.298-5.508 4.572-5.647 4.361-2.829 2.17-2.891 2.073-5.779 4.143-5.725 3.923c-3.758 2.595-7.669 5.186-11.515 7.777l-11.595 7.643a1543.053 1543.053 0 0 1-47.018 29.397c-31.66 19.024-63.846 36.996-96.047 54.745-32.175 17.786-64.485 35.178-95.946 53.722-15.72 9.281-31.216 18.866-46.203 29.077-14.956 10.23-29.441 21.085-42.598 33.197-6.576 6.052-12.785 12.44-18.401 19.242-5.597 6.805-10.695 13.982-14.754 21.647-4.044 7.659-7.261 15.721-9.053 24.11-1.002 4.174-1.478 8.444-1.857 12.719l-.128 3.22-.033.806c-.012.177-.02.743-.037.6l.044 1.721.175 6.887c-.006 2.35.274 4.459.459 6.646l.592 6.532.986 6.643c.355 2.212.584 4.438 1.078 6.638 1.67 8.83 3.68 17.634 6.157 26.342 4.88 17.436 11.008 34.602 17.891 51.481 6.886 16.885 14.529 33.495 22.647 49.884 8.113 16.395 16.725 32.561 25.709 48.527 17.995 31.907 37.303 63.172 58.002 93.417l-2.623.185 16.6-30.169.266-.484.518-.039 57.366-4.378-57.181 6.353.784-.523-15.615 30.69-1.125 2.211-1.498-2.026c-10.957-14.824-21.366-29.979-31.53-45.328a1209.336 1209.336 0 0 1-29.438-46.729c-18.893-31.618-36.476-64.116-51.303-98.035-7.384-16.965-14.1-34.284-19.498-52.124-2.741-8.904-5.028-17.977-6.968-27.155-.559-2.275-.86-4.619-1.282-6.932l-1.185-6.963-.809-7.173c-.251-2.383-.593-4.831-.633-7.08l-.324-6.882-.081-1.72.027-2.038.07-3.665c.313-4.876.769-9.771 1.798-14.563 1.838-9.636 5.316-18.872 9.682-27.521 4.381-8.662 9.832-16.643 15.751-24.128 5.939-7.48 12.438-14.417 19.251-20.937 13.641-13.042 28.421-24.565 43.583-35.346 15.2-10.733 30.802-20.744 46.557-30.406 31.533-19.289 63.616-37.32 95.507-55.502 31.89-18.176 63.612-36.49 94.667-55.759a1548.701 1548.701 0 0 0 46.082-29.577l11.322-7.653c3.74-2.586 7.459-5.109 11.229-7.778l5.595-3.93 5.37-3.948 2.686-1.972 2.611-2.055 5.211-4.118 5.039-4.29 2.514-2.148 2.421-2.237c1.602-1.501 3.256-2.956 4.816-4.491l4.633-4.646c6.044-6.3 11.69-12.91 16.748-19.876 9.995-13.983 17.538-29.45 21.23-45.805 3.755-16.334 3.604-33.412.147-50.044-1.716-8.321-4.208-16.543-7.34-24.58-3.148-8.035-6.915-15.887-11.144-23.534-4.235-7.646-8.908-15.103-13.937-22.356-5.059-7.239-10.48-14.266-16.146-21.119-5.652-6.865-11.637-13.494-17.803-19.969-3.058-3.26-6.243-6.411-9.395-9.592-3.225-3.115-6.409-6.268-9.716-9.308-26.252-24.524-55.14-46.432-85.259-66.458-15.099-9.969-30.517-19.484-46.247-28.466-3.915-2.274-7.894-4.448-11.837-6.661-3.963-2.151-7.848-4.304-11.952-6.457l-3.042-1.614-3.006-1.614-6.17-3.347-6.168-3.348-3.085-1.675-3.036-1.766-12.145-7.07c-4.021-2.403-7.968-4.941-11.955-7.407-1.981-1.253-3.993-2.457-5.95-3.751l-5.852-3.914-5.851-3.916-2.921-1.965-2.864-2.053-11.45-8.219-11.177-8.609-2.793-2.154-2.726-2.243-5.442-4.498-5.441-4.5-5.289-4.688a449.101 449.101 0 0 1-75.051-84.501c-21.44-31.196-38.325-65.48-50.674-101.181a465.746 465.746 0 0 1-15.195-54.512c-3.905-18.443-6.746-37.078-8.638-55.777-.463-4.676-.974-9.35-1.244-14.036l-.49-7.025c-.166-2.341-.341-4.678-.412-7.055l-.573-14.2-.176-13.776.079-55.249c-.007-36.652-.394-73.186-2.37-109.51-1.019-18.155-2.45-36.25-4.414-54.25-1.973-17.997-4.503-35.902-7.9-53.601-3.372-17.702-7.512-35.219-12.581-52.431-5.074-17.206-11.031-34.131-18.19-50.514-7.105-16.404-15.249-32.333-24.444-47.633l-3.5-5.707c-1.167-1.902-2.308-3.822-3.586-5.652l-7.466-11.116-7.925-10.797c-1.296-1.834-2.686-3.535-4.064-5.25l-4.127-5.16-2.062-2.582c-.689-.861-1.351-1.721-2.134-2.588l-4.527-5.191-4.528-5.192-1.132-1.298c-.222-.26-.091-.097-.414-.449l-.565-.601-2.261-2.403c-6.059-6.374-12.38-12.513-19.118-18.168a255.168 255.168 0 0 0-20.993-15.969c-7.267-4.964-14.863-9.44-22.644-13.561-31.145-16.513-66.018-25.886-101.366-28.1-35.369-2.124-71.25 2.744-104.959 14.27-33.733 11.468-65.337 29.292-92.923 52.099-27.631 22.792-51.142 50.551-70.001 81.215l-3.493 5.781c-1.148 1.931-2.211 3.88-3.323 5.819-2.226 3.802-4.34 7.982-6.499 12.011-3.836 7.803-7.6 15.912-10.115 24.311l-1.037 3.13-.828 3.185c-.529 2.129-1.155 4.239-1.612 6.384l-1.238 6.463-.308 1.617-.202 1.632-.406 3.265-.41 3.266c-.129 1.09-.147 2.188-.228 3.282-.109 2.191-.314 4.381-.353 6.576l.024 6.593c-.026 1.101.063 2.197.139 3.295l.219 3.294c.682 8.773 2.023 17.543 4.338 26.112.282 1.072.491 2.163.832 3.221l.97 3.188c.669 2.119 1.226 4.272 2.034 6.352l2.264 6.289 2.563 6.188c3.569 8.191 7.531 16.256 12.144 23.986.566.971 1.105 1.958 1.69 2.919l1.789 2.866c1.208 1.902 2.349 3.845 3.611 5.715l3.782 5.615c1.235 1.89 2.623 3.679 3.927 5.525 2.596 3.702 5.428 7.239 8.177 10.838 1.408 1.774 2.862 3.515 4.291 5.275l2.152 2.633 2.222 2.579 4.453 5.152 4.585 5.044a182.416 182.416 0 0 0 4.653 4.986l4.718 4.931a546.366 546.366 0 0 0 40.275 37.016c28.072 23.412 58.125 44.516 89.19 63.988a1008.72 1008.72 0 0 0 47.4 27.958 1011.932 1011.932 0 0 0 24.264 13.019c8.15 4.235 16.343 8.386 24.659 12.288zm111.18-599.576.989-2.324a217.238 217.238 0 0 1 3.028-6.714c2.761-5.829 6.878-14.368 12.688-24.947 5.784-10.593 13.245-23.232 22.479-37.34 9.318-14.042 20.361-29.604 33.629-45.689l5.04-6.086 5.289-6.089c1.764-2.066 3.61-4.093 5.476-6.138 1.871-2.04 3.719-4.137 5.658-6.183 3.883-4.088 7.832-8.253 12.021-12.313 4.102-4.148 8.474-8.155 12.855-12.278 2.219-2.031 4.505-4.024 6.789-6.048l3.455-3.028 3.564-2.95c2.395-1.96 4.762-3.986 7.225-5.927l7.478-5.805 1.886-1.459 1.937-1.405 3.891-2.821c2.598-1.892 5.221-3.777 7.95-5.547l8.167-5.418 8.44-5.187c2.797-1.785 5.754-3.339 8.661-5.004 2.921-1.641 5.832-3.333 8.881-4.801l9.103-4.568 9.359-4.231c3.103-1.477 6.357-2.646 9.558-3.961l4.831-1.927c1.604-.668 3.275-1.169 4.913-1.762 3.295-1.136 6.596-2.288 9.932-3.362l10.136-2.919 2.542-.729 2.577-.614 5.167-1.213 5.178-1.21c1.725-.417 3.489-.663 5.233-1.002 3.502-.62 7.001-1.297 10.523-1.863l10.642-1.295 2.665-.32c.888-.112 1.784-.136 2.676-.207l5.362-.36c3.578-.215 7.153-.559 10.744-.52l10.769-.123c3.587.077 7.172.286 10.76.428l5.378.266 5.35.556c3.564.386 7.135.717 10.688 1.156l10.59 1.704c1.76.299 3.533.539 5.281.889l5.222 1.135 10.421 2.285 10.23 2.86 5.099 1.436c1.697.482 3.344 1.105 5.015 1.65l9.968 3.381 2.482.851 2.433.965 4.854 1.929c3.229 1.292 6.464 2.553 9.662 3.867l9.377 4.34 4.665 2.163 2.327 1.079c.767.375 1.515.784 2.271 1.174l9.022 4.72c2.986 1.586 6.019 3.072 8.878 4.819l8.638 5.068c2.851 1.709 5.749 3.319 8.471 5.171l8.23 5.371 4.084 2.667c1.36.884 2.722 1.761 4.018 2.72a2021.29 2021.29 0 0 1 15.541 11.175c4.986 3.858 9.863 7.738 14.705 11.534l3.61 2.848 3.478 2.958 6.862 5.883 6.755 5.81c2.204 1.956 4.32 3.975 6.459 5.936 4.248 3.952 8.474 7.794 12.536 11.666l11.675 11.704 5.672 5.687c1.832 1.914 3.602 3.853 5.366 5.756l10.342 11.187 2.511 2.717 2.403 2.755c1.583 1.833 3.146 3.645 4.688 5.433l8.987 10.457 2.168 2.522 2.066 2.545 4.012 4.996 7.624 9.516c2.457 3.058 4.836 5.995 6.977 8.936l11.937 15.995c1.778 2.43 3.522 4.678 5.034 6.896l4.289 6.197 6.748 9.77 5.563 8.163-6.692-7.274-7.972-8.771c-3.152-3.437-6.684-7.459-10.846-11.784l-13.584-14.468c-2.436-2.66-5.099-5.312-7.816-8.098l-8.459-8.633-4.432-4.533-2.26-2.324-2.359-2.294-9.768-9.494-5.063-4.941-2.575-2.517-2.68-2.472-11.012-10.16-5.674-5.241-5.934-5.176-12.185-10.634-12.906-10.599c-2.19-1.784-4.361-3.626-6.612-5.397l-6.88-5.244-6.959-5.323-3.501-2.7-3.619-2.579-14.701-10.427a1885.366 1885.366 0 0 1-15.363-10.073c-1.275-.875-2.607-1.66-3.938-2.454l-3.996-2.396-8.038-4.825c-2.658-1.673-5.468-3.088-8.233-4.607l-8.339-4.548c-2.756-1.59-5.653-2.904-8.512-4.324l-8.623-4.221c-.723-.348-1.438-.717-2.168-1.049l-2.211-.951-4.432-1.907-8.891-3.833-9.072-3.451-4.551-1.727-2.278-.865-2.316-.748-9.292-2.982c-1.556-.479-3.092-1.04-4.666-1.456l-4.728-1.243-9.466-2.509-9.581-2.039-4.797-1.022c-1.604-.313-3.226-.516-4.838-.781l-9.691-1.511c-3.245-.379-6.501-.656-9.752-.994l-4.878-.489-4.893-.222c-26.091-1.597-52.303 1.207-77.301 7.489l-9.322 2.518c-3.078.927-6.114 1.974-9.174 2.919-1.52.505-3.068.915-4.561 1.495l-4.497 1.659c-2.983 1.136-6.015 2.119-8.921 3.417l-8.772 3.681a53260.84 53260.84 0 0 1-8.571 4.02c-2.867 1.295-5.642 2.77-8.426 4.198-2.771 1.454-5.59 2.792-8.272 4.373l-8.099 4.565-7.876 4.812c-1.298.813-2.627 1.57-3.894 2.424l-3.815 2.516-3.807 2.49-1.897 1.24-1.853 1.299c-9.971 6.774-19.287 14.072-28.303 21.272-8.934 7.31-17.354 14.782-25.348 22.207-7.938 7.482-15.475 14.889-22.461 22.262l-2.633 2.727-2.551 2.75-5.021 5.414c-3.223 3.646-6.451 7.148-9.475 10.671-6.163 6.954-11.703 13.815-16.979 20.227-10.393 12.944-19.069 24.584-26.012 34.331-6.906 9.77-12.212 17.568-15.67 22.987-1.726 2.711-3.074 4.781-3.945 6.198l-1.32 2.144zm150.332-307.822s1.076-1.458 3.235-4.083 5.409-6.408 9.757-11.035c4.333-4.645 9.789-10.104 16.307-16.114 6.514-6.016 14.145-12.512 22.807-19.223 8.661-6.711 18.422-13.534 29.149-20.208 10.75-6.625 22.498-13.064 35.152-18.817a268.783 268.783 0 0 1 19.629-8.057c1.675-.649 3.387-1.224 5.098-1.816 1.715-.583 3.422-1.201 5.158-1.759 3.487-1.068 6.98-2.181 10.553-3.109 1.783-.475 3.558-.987 5.358-1.432l5.422-1.296c3.619-.877 7.303-1.561 10.989-2.247 3.712-.576 7.412-1.26 11.168-1.672 1.874-.226 3.744-.487 5.625-.681l5.656-.5c15.101-1.144 30.41-.601 45.233 1.606 1.858.227 3.691.626 5.531.932 1.834.345 3.675.619 5.488 1.022l5.408 1.271 2.69.636 2.653.75 5.275 1.499c1.756.485 3.459 1.124 5.179 1.677 1.713.577 3.427 1.13 5.108 1.75l4.977 1.978c13.201 5.267 25.253 11.861 35.941 19.012 2.717 1.726 5.237 3.651 7.762 5.475 1.254.923 2.513 1.817 3.731 2.742l3.539 2.863c4.719 3.73 8.982 7.655 13.081 11.379 3.913 3.933 7.781 7.54 11.099 11.324 1.685 1.865 3.349 3.651 4.912 5.434 1.526 1.818 3.007 3.581 4.415 5.308 2.873 3.403 5.359 6.747 7.645 9.836 1.133 1.552 2.271 2.994 3.259 4.451l2.817 4.163c3.619 5.219 6.14 9.532 7.871 12.452l2.621 4.49-3.765-3.594-4.444-4.344c-.854-.869-1.819-1.761-2.854-2.707l-3.252-3.038-3.6-3.38c-1.241-1.194-2.636-2.353-4.033-3.606-2.842-2.465-5.772-5.249-9.153-7.949-1.667-1.373-3.361-2.809-5.103-4.285-1.778-1.436-3.651-2.856-5.543-4.34-3.73-3.03-7.87-5.917-12.087-9.016-4.361-2.905-8.768-6.082-13.6-8.928l-3.591-2.235c-1.22-.726-2.474-1.416-3.722-2.133-2.509-1.412-5.006-2.919-7.665-4.206-10.432-5.513-21.8-10.428-33.863-14.333l-4.548-1.441-4.63-1.273c-1.553-.409-3.085-.906-4.664-1.25l-4.737-1.081-2.376-.545-2.408-.433-4.829-.875c-1.61-.306-3.247-.491-4.874-.746-1.633-.216-3.254-.528-4.904-.671-3.297-.306-6.586-.751-9.922-.877l-4.996-.297-5.021-.14-2.514-.073-2.521.03-5.046.059-5.053.25a98.36 98.36 0 0 0-5.054.33c-13.488.944-26.931 3.219-40.03 6.351-6.545 1.574-13.006 3.377-19.358 5.324l-4.737 1.505c-1.573.506-3.124 1.072-4.68 1.601-3.116 1.045-6.186 2.179-9.24 3.281a429.116 429.116 0 0 0-34.604 14.835c-5.432 2.597-10.658 5.264-15.701 7.901-2.537 1.292-4.981 2.654-7.413 3.944l-7.08 3.94a608.112 608.112 0 0 0-24.951 14.847 680.896 680.896 0 0 0-18.903 12.281c-5.192 3.514-9.259 6.335-12.015 8.291-2.754 1.952-4.214 3.025-4.214 3.025zm33.41-177.754s.863-1.246 2.608-3.486c1.746-2.24 4.38-5.468 7.926-9.411 3.531-3.959 7.994-8.609 13.346-13.727 5.349-5.122 11.634-10.649 18.791-16.359 7.158-5.707 15.246-11.51 24.159-17.182 8.935-5.63 18.719-11.104 29.287-15.989a217.615 217.615 0 0 1 16.41-6.842c2.815-1.072 5.697-2.042 8.586-3.039 2.921-.912 5.845-1.863 8.84-2.659 5.949-1.706 12.077-3.052 18.271-4.21 3.118-.491 6.222-1.094 9.382-1.43 1.576-.187 3.147-.403 4.729-.563l4.757-.412c1.583-.156 3.177-.219 4.771-.283l4.778-.191 4.786-.011 2.39.01 2.39.1 4.771.205c1.587.115 3.17.275 4.751.413 3.165.233 6.301.724 9.424 1.144 1.563.201 3.105.544 4.652.811 1.542.299 3.09.539 4.615.888l4.548 1.09 2.262.546 2.23.642 4.434 1.282c1.475.416 2.906.959 4.351 1.431 1.439.492 2.879.963 4.29 1.496l4.175 1.69c11.078 4.496 21.16 10.123 30.072 16.209 2.265 1.472 4.363 3.109 6.464 4.661 1.044.785 2.092 1.546 3.104 2.333l2.94 2.434c3.915 3.177 7.45 6.505 10.837 9.671 3.229 3.342 6.425 6.402 9.149 9.614 1.384 1.583 2.75 3.1 4.032 4.612a325.732 325.732 0 0 1 3.616 4.501c2.347 2.89 4.377 5.719 6.231 8.34.92 1.316 1.845 2.539 2.646 3.773l2.278 3.529c2.926 4.424 4.94 8.08 6.322 10.556l2.084 3.811-3.228-2.914a324.9 324.9 0 0 1-3.8-3.527c-.73-.706-1.554-1.43-2.434-2.197l-2.768-2.468-3.06-2.746c-1.055-.971-2.236-1.911-3.421-2.929-2.41-1.998-4.886-4.267-7.74-6.453-1.41-1.112-2.837-2.28-4.303-3.479-1.497-1.165-3.073-2.316-4.664-3.518-3.139-2.457-6.604-4.799-10.138-7.306-3.649-2.348-7.327-4.928-11.356-7.22a173.523 173.523 0 0 1-2.99-1.807c-1.016-.587-2.058-1.143-3.096-1.723-2.085-1.14-4.16-2.358-6.368-3.393a179.504 179.504 0 0 0-27.993-11.529l-3.747-1.153-3.812-1.02c-1.277-.328-2.537-.729-3.836-1.004l-3.896-.864-1.954-.437-1.979-.343-3.968-.695c-1.323-.242-2.668-.384-4.005-.583-1.342-.168-2.673-.415-4.028-.523-2.708-.228-5.405-.61-8.144-.706l-4.101-.24-4.122-.095-2.063-.051-2.069.034-4.143.048-4.15.196c-1.384.059-2.768.129-4.152.265l-4.154.331c-1.384.13-2.765.316-4.147.47-2.766.279-5.521.739-8.275 1.123-5.492.941-10.972 1.93-16.363 3.256-5.401 1.257-10.737 2.713-15.986 4.29l-3.917 1.22c-1.3.41-2.583.87-3.87 1.3-2.577.849-5.122 1.762-7.651 2.653a371.806 371.806 0 0 0-28.739 12.005c-4.525 2.096-8.878 4.261-13.089 6.389-2.118 1.042-4.161 2.145-6.193 3.186l-5.921 3.185a548.39 548.39 0 0 0-20.935 11.982 639.012 639.012 0 0 0-15.942 9.895 705.087 705.087 0 0 0-10.184 6.666c-2.344 1.57-3.591 2.431-3.591 2.431z"/><path d="m1608.615 1966.791-.771 3.051-.896 3.751-1.193 5.173c-1.797 7.818-4.138 19.351-6.731 34.064a851.424 851.424 0 0 0-7.537 53.271c-.52 5.162-1.154 10.472-1.595 15.962l-.737 8.341c-.257 2.816-.4 5.683-.609 8.578l-.601 8.798-.445 9.021-.459 9.332c-.085 1.577-.14 3.106-.297 4.837-.129 1.693-.269 3.39-.459 5.036-2.884 26.638-11.792 54.449-25.743 81.504a259.68 259.68 0 0 1-11.554 20.08 254.068 254.068 0 0 1-13.666 19.515c-4.926 6.374-10.201 12.627-15.978 18.58-5.751 5.973-11.922 11.719-18.617 17.063-1.649 1.36-3.394 2.631-5.102 3.945-1.765 1.254-3.493 2.557-5.32 3.755-3.59 2.472-7.364 4.763-11.264 6.903-7.808 4.264-16.218 7.891-25.233 10.322a91.137 91.137 0 0 1-28.329 3.227c-9.704-.546-19.496-2.771-28.432-6.658l-1.454-.617c-.221-.087-.533-.24-.825-.379l-.88-.424c-1.153-.566-2.386-1.138-3.467-1.72l-3.177-1.755c-1.056-.59-2.057-1.246-3.087-1.869-4.061-2.558-7.949-5.335-11.565-8.349-7.306-5.97-13.753-12.685-19.577-19.752-5.822-7.072-11.077-14.485-15.844-22.12a278.199 278.199 0 0 1-13.122-23.418c-7.912-15.958-14.481-32.387-20.051-49.007a424.458 424.458 0 0 1-7.583-25.074 487.692 487.692 0 0 1-6.128-25.265c-3.646-16.876-6.366-33.808-8.047-50.701-.844-8.447-1.447-16.882-1.75-25.302-.276-8.425-.232-16.829.228-25.224.219-4.194.588-8.392 1.041-12.58.476-4.174 1.158-8.492 1.795-12.283 1.278-7.825 2.662-15.621 4.215-23.357 1.558-7.737 3.29-15.417 5.391-23.01 2.105-7.592 4.564-15.103 7.866-22.431 3.326-7.291 7.365-14.569 13.608-20.888 3.117-3.125 6.87-5.955 11.186-7.916 4.302-1.98 9.099-2.93 13.616-2.925 4.543-.016 8.776.864 12.63 2.1 3.858 1.253 7.356 2.896 10.618 4.694 6.499 3.633 12.084 7.88 17.188 12.289 5.106 4.409 9.728 8.99 14.067 13.578a275.496 275.496 0 0 1 12.147 13.806 450.315 450.315 0 0 1 20.37 26.763c12.132 17.189 21.821 32.676 29.585 45.542 7.776 12.857 13.51 23.169 17.456 30.171 1.97 3.502 3.429 6.219 4.421 8.042l1.503 2.767-7.128-10.049c-4.622-6.566-11.525-16.113-20.39-28.163-8.91-12.014-19.827-26.527-33.049-42.48-6.642-7.944-13.8-16.299-21.749-24.63-7.952-8.294-16.571-16.79-26.302-24.186-4.858-3.67-9.978-7.102-15.307-9.696-5.297-2.577-10.889-4.236-15.68-3.914a16.333 16.333 0 0 0-6.612 1.818c-2.046 1.066-4 2.638-5.827 4.659-3.672 4.046-6.693 9.738-9.135 15.928-2.442 6.222-4.382 13.003-6.053 20.019-1.658 7.028-3.018 14.321-4.223 21.778-1.205 7.461-2.238 15.092-3.296 22.855-.548 4-.989 7.522-1.305 11.265-.286 3.732-.505 7.505-.587 11.329-.33 15.296.702 31.119 2.641 47.048.97 7.969 2.2 15.972 3.641 23.981 1.429 8.013 3.035 16.041 4.874 24.05 3.638 16.029 8.246 31.96 13.539 47.66 5.329 15.686 11.586 31.083 18.944 45.771a253.587 253.587 0 0 0 11.863 21.4c4.256 6.89 8.885 13.455 13.873 19.568 2.502 3.045 5.08 5.998 7.787 8.752a104.207 104.207 0 0 0 8.341 7.847c2.865 2.462 5.868 4.646 8.931 6.638.773.478 1.53 1 2.313 1.447l2.349 1.34c.77.43 1.456.74 2.183 1.127l.537.279c.18.094.336.184.604.295l1.446.636c6.481 2.938 13.298 4.516 20.245 5.065a67.505 67.505 0 0 0 21.02-1.973c6.98-1.712 13.826-4.457 20.387-7.858a133.585 133.585 0 0 0 18.855-11.953c11.991-8.99 22.611-19.746 32.108-31.053 9.508-11.331 17.67-23.456 24.815-35.716a254.81 254.81 0 0 0 17.705-37.354c4.742-12.489 8.131-24.976 10.201-37.102.277-1.529.491-3.006.699-4.471.229-1.424.394-3.046.576-4.598l1.045-9.248 1.034-9.133 1.226-8.883c.422-2.921.775-5.811 1.239-8.646l1.35-8.39c.837-5.52 1.866-10.848 2.822-16.011 3.897-20.645 8.194-38.432 12.171-52.942 3.945-14.521 7.653-25.744 10.235-33.362a315.245 315.245 0 0 1 3.105-8.645c.748-1.935 1.133-2.936 1.133-2.936z"/></g></switch></svg>